<svg width="71" height="70" viewBox="0 0 71 70" fill="none" xmlns="http://www.w3.org/2000/svg">
  <rect width="70.6195" height="69.6106" rx="10.0885" fill="#272B34"/>
  <path d="M33.1329 34.8071L24.6991 34.8071M51.7672 33.8499C51.9466 33.9372 52.0979 34.0733 52.2036 34.2425C52.3093 34.4117 52.3653 34.6073 52.3652 34.8068C52.365 35.0064 52.3088 35.2019 52.2028 35.3709C52.0968 35.54 51.9454 35.6758 51.7658 35.7629L19.6417 51.2332C19.4496 51.3257 19.2342 51.3582 19.0234 51.3267C18.8126 51.2952 18.6161 51.2011 18.4594 51.0565C18.3027 50.912 18.1931 50.7237 18.1448 50.5161C18.0964 50.3085 18.1116 50.0912 18.1883 49.8923L23.8431 35.188C23.9374 34.9428 23.9374 34.6714 23.8431 34.4262L18.1897 19.7206C18.1137 19.5219 18.099 19.305 18.1475 19.0979C18.196 18.8908 18.3055 18.703 18.4618 18.5588C18.6182 18.4146 18.8142 18.3205 19.0245 18.2888C19.2348 18.2571 19.4498 18.2892 19.6417 18.381L51.7672 33.8499Z" stroke="white" stroke-width="3.39973" stroke-linecap="round" stroke-linejoin="round"/>
</svg>
